/* XPM */
static char * col_2_xpm[] = {
"75 75 5 1",
" 	c #FFFFFF",
".	c #5FCDE4",
"+	c #CBDBFC",
"@	c #9BADB7",
"#	c #1C41AE",
"        .        ..+++++.  +.           .        ..     .  +.           .  ",
"                  ..+++++.  +.                    ..     .  +.             ",
"                   ..+++++.  +.                    ..     .  +.            ",
"                    .++++++.  +.                    .      .  +.           ",
".                   +.  ++  .   .                   +.      .   .          ",
"+.                  +                               +                      ",
" +.                                                                        ",
"  +.                                                                       ",
".  +.                                                                      ",
" .  +                                                                .     ",
"  .                            @                               @      .    ",
"   .               ###        @ @                   ###       @ @     +.   ",
"    .              ###         @                    ###        @       +.  ",
"              +    ###                        +     ###              .  +. ",
"            + +    ###                      + +     ###               ..  .",
"            + +    ###                      + +     ###                    ",
"            +      ###                      +       ###                    ",
"                   ###                              ###                    ",
"                   ###            +                 ###           +        ",
"                   ###           + +                ###          + +       ",
"                   ###            +                 ###           +   .    ",
"                   ###                              ###                .   ",
"           @       ###                     @        ###                 .  ",
".         @ @      ###                    @ @       ###                  . ",
"..  +      @       ###                     @        ###                   .",
" ..                ####################################                    ",
"  ..               ####################################                    ",
"   .  +            ####################################                    ",
"    . ++           ####################################              .     ",
"      ++  +        ####################################    +         ..    ",
"       +@++        ####################################    +          ..   ",
"       @++@        ####################################    + +         ..  ",
"        @@         ####################################    + +          .  ",
"                   ####################################      +             ",
"                   ####################################                    ",
"                   ####################################                    ",
".                  ####################################                    ",
"+.                 ####################################                    ",
" +.                ###                              ###                    ",
"  +.               ###                              ###                    ",
".  +.              ###                              ###                    ",
" .  +              ###                              ###              .     ",
"  .                ###         @                    ###        @      .    ",
"   .               ###        @ @                   ###       @ @     +.   ",
"    .              ###         @                    ###        @       +.  ",
"              +    ###                        +     ###              .  +. ",
"            + +    ###                      + +     ###               .. +.",
"            + +    ###                      + +     ###               +++++",
"            +      ###                      +       ###               +++++",
"                   ###                              ###               +++++",
"                   ###            +                 ###           +   +++++",
"                   ###           + +                ###          + +  +++++",
"                   ###            +                 ###           +   .++++",
"                   ###                              ###                .+++",
"           @       ###                     @        ###                 .++",
".         @ @      ###                    @ @       ###                  .+",
"..         @       ###                     @        ###                   .",
" ..                ###                              ###                    ",
"  ..               ###                              ###                    ",
"   .. +            ###                +             ###                    ",
"    . ++           ###                ++            ###              .     ",
"      ++  +                +          ++  +                +         ..    ",
"       +@++                +           +@++                +          ..   ",
"       @++@                + +         @++@                + +         ..  ",
"        @@                 + +          @@                 + +          .  ",
"                             +                               +             ",
"                                                                           ",
"                                                                           ",
".                                                                          ",
"+.                           .  +.                           .  +.         ",
" +.                           .  +.                           .  +.        ",
"  +.                           .  +.                           .  +.       ",
".  +.                           .  +.                           .  +.      ",
"+.  +.                           .  +.                           .  +.     ",
"++.  +.                           .  +.                           .  +.    "};
