/* XPM */
static char * exit_1_xpm[] = {
"75 75 31 1",
" 	c #FFFFFF",
".	c #5FCDE4",
"+	c #CBDBFC",
"@	c #D31B1B",
"#	c #C81919",
"$	c #C61919",
"%	c #D11B1B",
"&	c #C91919",
"*	c #000000",
"=	c #C51818",
"-	c #D01A1A",
";	c #B91616",
">	c #BA1616",
",	c #BF1717",
"'	c #CF1A1A",
")	c #D21B1B",
"!	c #BB1717",
"~	c #C31818",
"{	c #BE1717",
"]	c #CC1A1A",
"^	c #B71616",
"/	c #C21818",
"(	c #B61616",
"_	c #C01717",
":	c #760A0A",
"<	c #C41818",
"[	c #D01B1B",
"}	c #CD1A1A",
"|	c #CE1A1A",
"1	c #C01818",
"2	c #9BADB7",
"        .        ..+++++.  +.           .        ..     .  +.           .  ",
"                  ..+++++.  +.                    ..     .  +.             ",
"                   ..+++++.  +.                    ..     .  +.            ",
"                    .++++++.  +.                    .      .  +.           ",
".                   +.  ++  .   .                   +.      .   .          ",
"+.      @@@         +                               +          @@@         ",
" +.     @@@                                                    @@@         ",
"  +.    @@@                                                    @@@         ",
".  +.   @@@@@@@@@@@@@@@@#$$$$%@@@#$%@@@&%@@@#$$$$$%@@@@@@@@@@@@@@@         ",
" .  +   @@@@@@@@@@@@@@@$*****=@@-**;%@-*@@@@******>%@@@@@@@@@@@@@@   .     ",
"  .     @@@@@@@@@@@@@@@*,'''')@@-*!*~@-*@@@@*{''']*~@@@@@@@@@@@@@@    .    ",
"   .    @@@@@@@@@@@@@@@*~@@@@@@@-*,*^%-*@@@@*/@@@-*~@@@@@@@@@@@@@@    +.   ",
"    .   @@@@@@@@@@@@@@@*($$%@@@@-*_:*<[*@@@@*/@@@-*~@@@@@@@@@@@@@@     +.  ",
"        @@@@@@@@@@@@@@@****$@@@@-*/}*;|*@@@@*/@@@-*~@@@@@@@@@@@@@@   .  +. ",
"        @@@@@@@@@@@@@@@*,'')@@@@-*/@}*1*@@@@*~@@@[*~@@@@@@@@@@@@@@    ..  .",
"        @@@@@@@@@@@@@@@*;$$$$%@@-*/@%*(*@@@@*($$$<*=@@@@@@@@@@@@@@         ",
"        @@@@@@@@@@@@@@@$*****@@@@*@@@@**@@@@******/@@@@@@@@@@@@@@@         ",
"        @@@@@@@@@@@@@@@@@@@@@@@@@@@@@@@@@@@@@@@@@@@@@@@@@@@@@@@@@@         ",
"        @@@@@@                    +                         @@@@@@+        ",
"        @@@@@@                   + +                        @@@@@@ +       ",
"        @@@@@@                    +                         @@@@@@+   .    ",
"        @@@                                                    @@@     .   ",
"        @@@2                               2                   @@@      .  ",
".       @@@ 2                             2 2                  @@@       . ",
"..  +   @@@2                               2                   @@@        .",
" ..     @@@                                                    @@@         ",
"  ..    @@@                                                    @@@         ",
"   .  + @@@                           +                        @@@         ",
"    . ++@@@                           ++                       @@@   .     ",
"      ++@@@                +          ++  +                +   @@@   ..    ",
"       +@@@                +           +2++                +   @@@    ..   ",
"       2@@@                + +         2++2                + + @@@     ..  ",
"        @@@                + +          22                 + + @@@      .  ",
"        @@@                  +                               + @@@         ",
"        @@@                                                    @@@         ",
"        @@@                                                    @@@         ",
".       @@@          +                               +         @@@         ",
"+.      @@@         + +                             + +        @@@         ",
" +.     @@@          +                               +         @@@         ",
"  +.    @@@                                                    @@@         ",
".  +.   @@@                                                    @@@         ",
" .  +   @@@                                                    @@@   .     ",
"  .     @@@                    2                               @@@    .    ",
"   .    @@@                   2 2                             2@@@    +.   ",
"    .   @@@                    2                               @@@     +.  ",
"        @@@   +                               +                @@@   .  +. ",
"        @@@ + +                             + +                @@@    .. +.",
"        @@@ + +                             + +                @@@    +++++",
"        @@@ +                               +                  @@@    +++++",
"        @@@                                                    @@@    +++++",
"        @@@                       +                            @@@+   +++++",
"        @@@                      + +                           @@@ +  +++++",
"        @@@                       +                            @@@+   .++++",
"        @@@                                                    @@@     .+++",
"        @@@2                               2                   @@@      .++",
".       @@@ 2                             2 2                  @@@       .+",
"..      @@@2                               2                   @@@        .",
" ..     @@@                                                    @@@         ",
"  ..    @@@                                                    @@@         ",
"   .. + @@@                           +                        @@@         ",
"    . ++@@@                           ++                       @@@   .     ",
"      ++@@@                +          ++  +                +   @@@   ..    ",
"       +@@@                +           +2++                +  @@@@    ..   ",
"       2@@@                + +         2++2                + +@@@@     ..  ",
"        @@@                + +          22                 + +@@@@      .  ",
"        @@@                  +                               + @@@         ",
"        @@@                                                    @@@         ",
"        @@@                                                    @@@         ",
".       @@@                                                    @@@         ",
"+.                           .  +.                           .  +.         ",
" +.                           .  +.                           .  +.        ",
"  +.                           .  +.                           .  +.       ",
".  +.                           .  +.                           .  +.      ",
"+.  +.                           .  +.                           .  +.     ",
"++.  +.                           .  +.                           .  +.    "};
