/* XPM */
static char * player_1_xpm[] = {
"75 75 9 1",
" 	c #FFFFFF",
".	c #5FCDE4",
"+	c #CBDBFC",
"@	c #9BADB7",
"#	c #8F563B",
"$	c #663931",
"%	c #45283C",
"&	c #DADADA",
"*	c #83939C",
"        .        ..+++++.  +.           .        ..     .  +.           .  ",
"                  ..+++++.  +.                    ..     .  +.             ",
"                   ..+++++.  +.                    ..     .  +.            ",
"                    .++++++.  +.                    .      .  +.           ",
".                   +.  ++  .   .                   +.      .   .          ",
"+.                  +                               +                      ",
" +.                                                                        ",
"  +.                                                                       ",
".  +.                                                                      ",
" .  +                                                                .     ",
"  .                            @                               @      .    ",
"   .                          @ @                             @ @     +.   ",
"    .                          @                               @       +.  ",
"              +                               +                      .  +. ",
"            + +                             + +                       ..  .",
"            + +                             + +                            ",
"            +                               +                              ",
"                                                                           ",
"                                  +                               +        ",
"                                 + +                             + +       ",
"                                  +                               +   .    ",
"                                                                       .   ",
"           @                               @                            .  ",
".         @ @                             @ @                            . ",
"..  +      @                               @                              .",
" ..                                                                        ",
"  ..                                                                       ",
"   .  +                               +                                    ",
"    . ++                              ++                             .     ",
"      ++  +                +          ++  +                +         ..    ",
"       +@++                +      ++   +                   +          ..   ",
"       @++@                       #$$                      + +         ..  ",
"        @@                        %$$ ++  +++++            + +          .  ",
"                        +     +   %$$$%$+++$$$$+++           +             ",
"                        +++  ++++++%%%%$$$$$$$$$$$+                        ",
"                        $$++++$$$%$$%%%%$%%$$$$$$$$                        ",
".                    +  $$$$$$$$$$$$$$$$$$$$$$$$$$$  +                     ",
"+.                  + + $$$    $$$$#+  $$$$#++  + $ + +                    ",
" +.                  +  $$$$$$+ $$%%%%%%%%%%%%%%%%$  +                     ",
"  +.                    $$$$$$$$$$$$$$$$%%%%%%%%$$$                        ",
".  +.                   $$$$$$$$$$$$$$$$$$$$$$$$%%                         ",
" .  +                   $$%%%%%%%%%%%%%%%%%%%%%%%%                   .     ",
"  .                      %$$%%%%%%%%%%%%$$$$$$%%%&&            @      .    ",
"   .                     &%%%%%%*&&&&&&%%%%%%%%%&&&           @ @     +.   ",
"    .                     &&&&&*&&&&&&&&&&&&&&&&&&             @       +.  ",
"              +               &&&&&&&&&&&&&&&&+                      .  +. ",
"            + +                             + +                       .. +.",
"            + +                             + +                       +++++",
"            +                               +                         +++++",
"                                                                      +++++",
"                                  +                               +   +++++",
"                                 + +                             + +  +++++",
"                                  +                               +   .++++",
"                                                                       .+++",
"           @                               @                            .++",
".         @ @                             @ @                            .+",
"..         @                               @                              .",
" ..                                                                        ",
"  ..                                                                       ",
"   .. +                               +                                    ",
"    . ++                              ++                             .     ",
"      ++  +                +          ++  +                +         ..    ",
"       +@++                +           +@++                +          ..   ",
"       @++@                + +         @++@                + +         ..  ",
"        @@                 + +          @@                 + +          .  ",
"                             +                               +             ",
"                                                                           ",
"                                                                           ",
".                                                                          ",
"+.                           .  +.                           .  +.         ",
" +.                           .  +.                           .  +.        ",
"  +.                           .  +.                           .  +.       ",
".  +.                           .  +.                           .  +.      ",
"+.  +.                           .  +.                           .  +.     ",
"++.  +.                           .  +.                           .  +.    "};
