/* XPM */
static char * skier_front_xpm[] = {
"75 75 34 1",
" 	c #FFFFFF",
".	c #5FCDE4",
"+	c #CBDBFC",
"@	c #000000",
"#	c #E86500",
"$	c #FEFEFE",
"%	c #D7D7D7",
"&	c #FFFEFF",
"*	c #9BADB7",
"=	c #F3C1C1",
"-	c #1A0917",
";	c #FF7C17",
">	c #FFFEFE",
",	c #1FB623",
"'	c #11FB30",
")	c #D8D8D8",
"!	c #30FB41",
"~	c #1D18DD",
"{	c #0C08DD",
"]	c #1912C0",
"^	c #98FCFE",
"/	c #97FBFD",
"(	c #96FBFD",
"_	c #FF0E2B",
":	c #97FCFE",
"<	c #0C1C1C",
"[	c #FF1B31",
"}	c #FB8B1D",
"|	c #D57610",
"1	c #910808",
"2	c #710606",
"3	c #FB1211",
"4	c #E30E0E",
"5	c #B21919",
"        .        ..+++++.  +.           .        ..     .  +.           .  ",
"                  ..+++++.  +.                    ..     .  +.             ",
"                   ..+++++.  +.                    ..     .  +.            ",
"                    .++++++.  +.                    .      .  +.           ",
".                   +.  ++  .   .                   +.      .   .          ",
"+.                  +                               +                      ",
" +.                     @@@@@@###############@@@@@                         ",
"  +.                  @@@@@@@@###############@@@@@@@                       ",
".  +.                 @@@@@@@@###############@@@@@@@                       ",
" .  +                @$$$$####%%%%   %%%     ####&&&@@               .     ",
"  .                @@@$$$$####%%%%   %%%     ####&&&@@@@       *      .    ",
"   .               @@@$$$$####%%%%   %%%     ####&&&@@@@      * *     +.   ",
"    .            @@%%%####%%%        %%%         ###%%%%@@     *       +.  ",
"              +  @@%%%####%%%        %%%         ###%%%%@@           .  +. ",
"            + +  @@%%%####%%%        %%%         ###%%%%@@            ..  .",
"            + +  @@%%%####===%%%     %%%         ###%%%%@@                 ",
"            +    @@%%%####===%%%     %%%         ###%%%%@@                 ",
"                 @@%%%####===%%%     %%%         ###%%%%@@                 ",
"                 @@%%%####   ===%%%  ===%%%      ###%%%%@@        +        ",
"                 @@%%%####   ===%%%  ===%%%      ###%%%%@@       + +       ",
"                    --;;;;   ===%%%  ===%%%>>    ;;;---           +   .    ",
"                    --;;;;    >>>>      ===%%%===;;;---                .   ",
"           *        --;;;;    >>>>      ===%%%===;;;---                 .  ",
".         * *       --;;;;    >>>>      ===%%%===;;;---                  . ",
"..  +      *     @@;;;;;;;>===,,,===> %%%,,,=%%%%;;;;;;;@@                .",
" ..              @@;;;;;;;>===,,,===> %%%,,,=%%%%;;;;;;;@@                 ",
"  ..             @@;;;;;;; ===,,,===> %%%,,,=%%%%;;;;;;;@@                 ",
"   .  +            ---;;;;%%%%'''%)%%%%%%!'!%%%%%;;;---                    ",
"    . ++           ---;;;;%%%%'''%%%%%%%%!'!%%%%%;;;---              .     ",
"      ++  +        ---;;;;%%%%'''%%%%%%%%''!%%%%%;;;---    +         ..    ",
"       +*++        ---;;;;%%%%%%%%%%%%%%%%%%%%%%%;;;---    +          ..   ",
"       *++*            ---~~~~{{{{~~~~~~~~~~~~~~~--        + +         ..  ",
"        **             ---~~~~{{{{~~~~~~~~~~~~~~~--        + +          .  ",
"                       ---~~~~{{{{~~~~~~~~~~~~~~~--          +             ",
"                       ---~~~~{{{{~~~~~~~~~~~~~~~--                        ",
"                    @@]]]]]]]]]]]]]]]]]]]]]]]]]]]]]]@@                     ",
".                   @@]]]]]]]]]]]]]]]]]]]]]]]]]]]]]]@@                     ",
"+.                  @@]]]]]]]]]]]]]]]]]]]]]]]]]]]]]]@@@@@@@@               ",
" +.                 @@]]]]]]]]]]]]]]]]]]]]]]]]]]]]]]@@@@@@@@               ",
"  +.                  @@@@^^^^///////////////^^^^(((________               ",
".  +.                 @@@@^^^^///////////////^^^^(((________               ",
" .  +                 @@@@^^^^///////////////^^^^(((________         .     ",
"  .                 @@^^^^::::///////////////::::<<<@@@@@@@@   *      .    ",
"   .                @@^^^^::::///////////////::::<<<@@@@@@@@  * *     +.   ",
"    .               @@^^^^::::///////////////::::<<    @@@     *       +.  ",
"              +     @@^^^^::::///////////////::::<<    @@@           .  +. ",
"            + +  @@[[[[[[[@@@@///////////////@@@@      @@@            .. +.",
"            + +  @@[[[[[[[@@@@///////////////@@@       @@@            +++++",
"            +    @@[[[[[[[@@@@///////////////@@@       @@@            +++++",
"                 @@[[[[[[[@@@@///////////////@@@       @@@            +++++",
"                 @@@@@@@@@@@@@}}}}|||}}}}}}}}@@@       @@@        +   +++++",
"                 @@@@@@@@@@@@@}}}}|||}}}}}}}}@@@       @@@       + +  +++++",
"                 @@@@@@@@@@@@@}}}}|||}}}}}}}}@@@       @@@        +   .++++",
"                 @@@       @@@}}}}|||}}}}}}}}@@@       @@@             .+++",
"           *     @@@       @@@111122211111111@@@       @@@              .++",
".         * *    @@@       @@@111122211111111@@@       @@@               .+",
"..         *     @@@       @@@111122211111111@@@       @@@                .",
" ..              @@@       @@@333344433333333@@@       @@@                 ",
"  ..             @@@       @@@333344433333333@@@       @@@                 ",
"   .. +          @@@       @@@333344433333333@@@       @@@                 ",
"    . ++         @@@       @@@333344433333333@@@       @@@           .     ",
"      ++  +      @@@       +  55555   ++55555          @@@ +         ..    ",
"       +*++                +  55555    +55555              +          ..   ",
"       *++*                + +55555    *55555              + +         ..  ",
"        **                 + +55555     55555              + +          .  ",
"                             +55555     55555                +             ",
"                              55555     55555                              ",
"                              55555     55555                              ",
".                             55555     55555                              ",
"+.                           .55555     55555                .  +.         ",
" +.                           .  +.                           .  +.        ",
"  +.                           .  +.                           .  +.       ",
".  +.                           .  +.                           .  +.      ",
"+.  +.                           .  +.                           .  +.     ",
"++.  +.                           .  +.                           .  +.    "};
