/* XPM */
static char * skier_spawn_xpm[] = {
"75 75 43 1",
" 	c #FFFFFF",
".	c #5FCDE4",
"+	c #CBDBFC",
"@	c #B21919",
"#	c #1C1C1C",
"$	c #000000",
"%	c #E86819",
"&	c #1E1D1D",
"*	c #D6D6D6",
"=	c #FFFDFF",
"-	c #E96B26",
";	c #FEFCFE",
">	c #040101",
",	c #9BADB7",
"'	c #D7D6D7",
")	c #181717",
"!	c #F3BFC1",
"~	c #FF7E25",
"{	c #D7D7D7",
"]	c #1FB52D",
"^	c #F1DADA",
"/	c #11FA37",
"(	c #F3C1C1",
"_	c #1D18DC",
":	c #2822DD",
"<	c #281BDD",
"[	c #050117",
"}	c #2824C0",
"|	c #1912BE",
"1	c #251CBF",
"2	c #2513BF",
"3	c #050113",
"4	c #01AFB2",
"5	c #86DEE0",
"6	c #9AF9FB",
"7	c #87DEE0",
"8	c #FF2536",
"9	c #FB8C2E",
"0	c #FB8D2B",
"a	c #961412",
"b	c #95140A",
"c	c #F91311",
"d	c #F91411",
"        .        ..+++++.  +.           .        ..     .  +.           .  ",
"                  ..+++++.  +.                    ..     .  +.             ",
"                   ..+++++.  +.                    ..     .  +.            ",
"                    .++++++.  +.                    .      .  +.           ",
".                   +.  ++  .   .                   +.      .   .          ",
"+.                  +                               +                      ",
" +.                                                    @@@                 ",
"  +.                                                  @@@                  ",
".  +.           ####$$$$$$$$$$$$$$$%%%%###########&& @@@                   ",
" .  +           ####$$$$$$$$$$$$$$$%%%%###########&&@@@              .     ",
"  .           ##****===============----;;;;;;;;;;;>>@@@        ,      .    ",
"   .          ##****= =============----;;;;;;;;;;;>>@@@       , ,     +.   ",
"    .         ##****===============----;;;;;;;;;;;>>@@@        ,       +.  ",
"              ##****===============----;;;;;;;;;;;>>@@@              .  +. ",
"            + +   $$''''===============----=======))@@@               ..  .",
"            + +   $$''''===============----=======))@@@                    ",
"            +     $$''''===============----=======))@@@                    ",
"                  $$''''===============----=======))@@@                    ",
"                  $$''''===============----=======))@@@           +        ",
"                  $$''''===============----=======))@@@          + +       ",
"                  $$''''===============----=======))@@@           +   .    ",
"                  ##****===!!!!====~~~~~~~~~~~~===))@@@                .   ",
"           ,      ##****===!!!!====~~~~~~~~~~~~===))@@@                 .  ",
".         , ,     ##****===!!!!====~~~~~~~~~~~~===))@@@                  . ",
"..  +      ,      ##****===!!!!====~~~~~~~~~~~~===))@@@                   .",
" ..                   $${{{]]]]====~~~~~~~~~~~~===))@@@                    ",
"  ..                  $${{{]]]]====~~~~~~~~~~~~===))@@@                    ",
"   .  +               $${{{]]]]====~~~~~~~~~~~~===))@@@                    ",
"    . ++              $${{{]]]]====~~~~~~~~~~~~===))@@@              .     ",
"      ++  +           $$^^^////((((~~~~~~~~~~~~{{{))@@@    +         ..    ",
"       +,++           $$^^^////((((~~~~~~~~~~~~{{{))@@@    +          ..   ",
"       ,++,           $$^^^////((((~~~~~~~~~~~~{{{))@@@    + +         ..  ",
"        ,,            $$^^^////((((~~~~~~~~~~~~{{{))@@@    + +          .  ",
"                ####____:::<<<<<<<<<<<<<<<<<<<<<<<[[@@@      +             ",
"                ####____:::<<<<<<<<<<<<<<<<<<<<<<<[[@@@                    ",
"                ####____:::<<<<<<<<<<<<<<<<<<<<<<<[[@@@                    ",
".               ####____:::<<<<<<<<<<<<<<<<<<<<<<<[[@@@                    ",
"+.              ####}}}}|||1111222222222222222222233@@@                    ",
" +.             ####}}}}|||1111222222222222222222233@@@                    ",
"  +.            ####}}}}|||1111222222222222222222233@@@                    ",
".  +.           ####}}}}|||1111222222222222222222233@@@                    ",
" .  +            $$   #####$$$$4444555566666666$$   @@@              .     ",
"  .              $$   #####$$$$4444555566666666$$   @@@        ,      .    ",
"   .             $$          $$4444555566666666$$   @@@       , ,     +.   ",
"    .            $$          $$4444555566666666$$   @@@        ,       +.  ",
"              +  $$          ##4444555577776666$$   @@@              .  +. ",
"            + +   $$         ##4444555577776666$$   @@@               .. +.",
"            + +   $$         ##4444555577776666$$   @@@               +++++",
"            +     $$         ##4444555577776666$$   @@@               +++++",
"                  $$         ##4444555588888888$$   @@@               +++++",
"                  $$         ##4444555588888888$$   @@@           +   +++++",
"                   $$        ##4444555588888888$$   @@@          + +  +++++",
"                   $$          ####99990000$$$$##   @@@           +   .++++",
"                   $$            ##99990000$$$$##   @@@                .+++",
"           ,       $$            ##99990000$$       @@@                 .++",
".         , ,      $$            ##99990000$$       @@@                  .+",
"..         ,        $$           ##aaaabbbb$$       @@@                   .",
" ..                 $$           ##aaaabbbb$$       @@@                    ",
"  ..                $$           ##aaaabbbb$$       @@@                    ",
"   .. +             $$         ####aaaabbbb$$       @@@                    ",
"    . ++            $$       ##ccccdddddddd$$       @@@              .     ",
"      ++  +          $$    + ##ccccdddddddd$$       @@@    +         ..    ",
"       +,++          $$    + ##ccccdddddddd$$       @@@    +          ..   ",
"       ,++,          $$    + ##ccccdddddddd$$       @@@    + +         ..  ",
"        ,,           $$    + ##$$$$$$$$$$$$$$              + +          .  ",
"                     $$      ##$$$$$$$$$$$$$$                +             ",
"                                                                           ",
"                                                                           ",
".                                                                          ",
"+.                           .  +.                           .  +.         ",
" +.                           .  +.                           .  +.        ",
"  +.                           .  +.                           .  +.       ",
".  +.                           .  +.                           .  +.      ",
"+.  +.                           .  +.                           .  +.     ",
"++.  +.                           .  +.                           .  +.    "};
