/* XPM */
static char * playeeeeee_xpm[] = {
"75 75 45 1",
" 	c #FFFFFF",
".	c #5FCDE4",
"+	c #CBDBFC",
"@	c #9BADB7",
"#	c #1C1C1C",
"$	c #000000",
"%	c #E86819",
"&	c #1E1D1D",
"*	c #D6D6D6",
"=	c #FFFDFF",
"-	c #E96B26",
";	c #FEFCFE",
">	c #040101",
",	c #D7D6D7",
"'	c #181717",
")	c #F3BFC1",
"!	c #FF7E25",
"~	c #D7D7D7",
"{	c #1FB52D",
"]	c #F1DADA",
"^	c #11FA37",
"/	c #F3C1C1",
"(	c #1D18DC",
"_	c #2822DD",
":	c #281BDD",
"<	c #050117",
"[	c #2824C0",
"}	c #1912BE",
"|	c #251CBF",
"1	c #2513BF",
"2	c #050113",
"3	c #01AFB2",
"4	c #86DEE0",
"5	c #9AF9FB",
"6	c #87DEE0",
"7	c #FF2536",
"8	c #FB8C2E",
"9	c #FB8D2B",
"0	c #961412",
"a	c #95140A",
"b	c #F91311",
"c	c #F91411",
"d	c #B21919",
"e	c #730C0C",
"f	c #751B1B",
"        .        ..+++++.  +.           .        ..     .  +.           .  ",
"                  ..+++++.  +.                    ..     .  +.             ",
"                   ..+++++.  +.                    ..     .  +.            ",
"                    .++++++.  +.                    .      .  +.           ",
".                   +.  ++  .   .                   +.      .   .          ",
"+.                  +                               +                      ",
" +.                                                                        ",
"  +.                                                                       ",
".  +.                                                                      ",
" .  +                                                                .     ",
"  .                            @                               @      .    ",
"   .                          @ @                             @ @     +.   ",
"    .                          @                               @       +.  ",
"              +                               +                      .  +. ",
"            + +                             + +                       ..  .",
"            + +           ###$$$$$$$$$$$%%%#########&                      ",
"            +             ###$$$$$$$$$$$%%%#########&                      ",
"                        ##*** ==========---;;;;;;;;;>                      ",
"                        ##***===========---;;;;;;;;;>             +        ",
"                        ##***===========---;;;;;;;;;>            + +       ",
"                           $$,,,===========---======'             +   .    ",
"                           $$,,,===========---======'                  .   ",
"           @               $$,,,===========---======'                   .  ",
".         @ @              $$,,,===========---======'                    . ",
"..  +      @               $$,,,===========---======'                     .",
" ..                        ##***==)))===!!!!!!!!!==='                      ",
"  ..                       ##***==)))===!!!!!!!!!==='                      ",
"   .  +                    ##***==)))===!!!!!!!!!==='                      ",
"    . ++                      $$~~{{{===!!!!!!!!!==='                .     ",
"      ++  +                +  $$~~{{{===!!!!!!!!!==='      +         ..    ",
"       +@++                +  $$~~{{{===!!!!!!!!!==='      +          ..   ",
"       @++@                + +$$]]^^^///!!!!!!!!!~~~'      + +         ..  ",
"        @@                 + +$$]]^^^///!!!!!!!!!~~~'      + +          .  ",
"                             +$$]]^^^///!!!!!!!!!~~~'        +             ",
"                          ###(((__::::::::::::::::::<                      ",
"                          ###(((__::::::::::::::::::<                      ",
".                    +    ###(((__::::::::::::::::::<+                     ",
"+.                  + +   ###[[[}}|||1111111111111112 +                    ",
" +.                  +    ###[[[}}|||1111111111111112+                     ",
"  +.                      ###[[[}}|||1111111111111112                      ",
".  +.                     ###[[[}}|||1111111111111112                      ",
" .  +                     $$  ####$$$333444555555$$                  .     ",
"  .                       $$   @    $333444555555$$            @      .    ",
"   .                      $$  @ @   $333444555555$$           @ @     +.   ",
"    .                      $$  @    #333444666555$$            @       +.  ",
"              +            $$       #333444666555$$                  .  +. ",
"            + +            $$       #333444666555$$                   .. +.",
"            + +            $$       #333444777777$$                   +++++",
"            +               $       #333444777777$$                   +++++",
"                            $        ###888999$$$##                   +++++",
"                            $     +    #888999$$$##               +   +++++",
"                            $    + +   #888999$$                 + +  +++++",
"                             $    +    #000aaa$$                  +   .++++",
"                             $         #000aaa$$                       .+++",
"           @                 $       ###000aaa$$                        .++",
".         @ @                $      #bbbcccccc$$                         .+",
"..         @                 $$     #bbbcccccc$$                          .",
" ..            d             $$     #bbbcccccc$$                           ",
"  ..           dd            ee     feeeeeeeeeee                           ",
"   .. +         ddddddddddddddddddddddddddddddddddddddddddd                ",
"    . ++        ddddddddddddddddddddddddddddddddddddddddddd          .     ",
"      ++  +                +          ++  +                +         ..    ",
"       +@++                +           +@++                +          ..   ",
"       @++@                + +         @++@                + +         ..  ",
"        @@                 + +          @@                 + +          .  ",
"                             +                               +             ",
"                                                                           ",
"                                                                           ",
".                                                                          ",
"+.                           .  +.                           .  +.         ",
" +.                           .  +.                           .  +.        ",
"  +.                           .  +.                           .  +.       ",
".  +.                           .  +.                           .  +.      ",
"+.  +.                           .  +.                           .  +.     ",
"++.  +.                           .  +.                           .  +.    "};
