/* XPM */
static char * skier_right_xpm[] = {
"75 75 45 1",
" 	c #FFFFFF",
".	c #5FCDE4",
"+	c #CBDBFC",
"@	c #9BADB7",
"#	c #1E1D1D",
"$	c #1C1C1C",
"%	c #E86819",
"&	c #000000",
"*	c #040101",
"=	c #FEFCFE",
"-	c #E96B26",
";	c #FFFDFF",
">	c #D6D6D6",
",	c #181717",
"'	c #D7D6D7",
")	c #FF7E25",
"!	c #F3BFC1",
"~	c #1FB52D",
"{	c #D7D7D7",
"]	c #F3C1C1",
"^	c #11FA37",
"/	c #F1DADA",
"(	c #050117",
"_	c #281BDD",
":	c #2822DD",
"<	c #1D18DC",
"[	c #050113",
"}	c #2513BF",
"|	c #251CBF",
"1	c #1912BE",
"2	c #2824C0",
"3	c #9AF9FB",
"4	c #86DEE0",
"5	c #01AFB2",
"6	c #87DEE0",
"7	c #FF2536",
"8	c #FB8D2B",
"9	c #FB8C2E",
"0	c #95140A",
"a	c #961412",
"b	c #F91411",
"c	c #F91311",
"d	c #B21919",
"e	c #730C0C",
"f	c #751B1B",
"        .        ..+++++.  +.           .        ..     .  +.           .  ",
"                  ..+++++.  +.                    ..     .  +.             ",
"                   ..+++++.  +.                    ..     .  +.            ",
"                    .++++++.  +.                    .      .  +.           ",
".                   +.  ++  .   .                   +.      .   .          ",
"+.                  +                               +                      ",
" +.                                                                        ",
"  +.                                                                       ",
".  +.                                                                      ",
" .  +                                                                .     ",
"  .                            @                               @      .    ",
"   .                          @ @                             @ @     +.   ",
"    .                          @                               @       +.  ",
"              +                               +                      .  +. ",
"            + +                             + +                       ..  .",
"            + +      #$$$$$$$$$%%%&&&&&&&&&&&$$$                           ",
"            +        #$$$$$$$$$%%%&&&&&&&&&&&$$$                           ",
"                     *=========---;;;;;;;;;; >>>$$                         ",
"                     *=========---;;;;;;;;;;;>>>$$                +        ",
"                     *=========---;;;;;;;;;;;>>>$$               + +       ",
"                     ,;;;;;;---;;;;;;;;;;;'''&&                   +   .    ",
"                     ,;;;;;;---;;;;;;;;;;;'''&&                        .   ",
"           @         ,;;;;;;---;;;;;;;;;;;'''&&                         .  ",
".         @ @        ,;;;;;;---;;;;;;;;;;;'''&&                          . ",
"..  +      @         ,;;;;;;---;;;;;;;;;;;'''&&                           .",
" ..                  ,;;;)))))))));;;!!!;;>>>$$                            ",
"  ..                 ,;;;)))))))));;;!!!;;>>>$$                            ",
"   .  +              ,;;;)))))))));;;!!!;;>>>$$                            ",
"    . ++             ,;;;)))))))));;;~~~{{&&                         .     ",
"      ++  +          ,;;;)))))))));;;~~~{{&&               +         ..    ",
"       +@++          ,;;;)))))))));;;~~~{{&&               +          ..   ",
"       @++@          ,{{{)))))))))]]]^^^//&&               + +         ..  ",
"        @@           ,{{{)))))))))]]]^^^//&&               + +          .  ",
"                     ,{{{)))))))))]]]^^^//&&                 +             ",
"                     (__________________::<<<$$$                           ",
"                     (__________________::<<<$$$                           ",
".                    (__________________::<<<$$$     +                     ",
"+.                  +[}}}}}}}}}}}}}}}|||11222$$$    + +                    ",
" +.                  [}}}}}}}}}}}}}}}|||11222$$$     +                     ",
"  +.                 [}}}}}}}}}}}}}}}|||11222$$$                           ",
".  +.                [}}}}}}}}}}}}}}}|||11222$$$                           ",
" .  +                  &&333333444555&&&$$$$  &&                     .     ",
"  .                    &&333333444555&        &&               @      .    ",
"   .                   &&333333444555&        &&              @ @     +.   ",
"    .                  &&333666444555$       &&                @       +.  ",
"              +        &&333666444555$       &&                      .  +. ",
"            + +        &&333666444555$      +&&                       .. +.",
"            + +        &&777777444555$      +&&                       +++++",
"            +          &&777777444555$      +&                        +++++",
"                       $$&&&888999$$$        &                        +++++",
"                       $$&&&888999$          &                    +   +++++",
"                          &&888999$+         &                   + +  +++++",
"                          &&000aaa$         &                     +   .++++",
"                          &&000aaa$         &                          .+++",
"           @              &&000aaa$$$      @&                           .++",
".         @ @             &&bbbbbbccc$    @ &                            .+",
"..         @              &&bbbbbbccc$     &&                             .",
" ..                       &&bbbbbbccc$     &&             d                ",
"  ..                      eeeeeeeeeeef     ee            dd                ",
"   .. +        ddddddddddddddddddddddddddddddddddddddddddd                 ",
"    . ++       ddddddddddddddddddddddddddddddddddddddddddd           .     ",
"      ++  +                +          ++  +                +         ..    ",
"       +@++                +           +@++                +          ..   ",
"       @++@                + +         @++@                + +         ..  ",
"        @@                 + +          @@                 + +          .  ",
"                             +                               +             ",
"                                                                           ",
"                                                                           ",
".                                                                          ",
"+.                           .  +.                           .  +.         ",
" +.                           .  +.                           .  +.        ",
"  +.                           .  +.                           .  +.       ",
".  +.                           .  +.                           .  +.      ",
"+.  +.                           .  +.                           .  +.     ",
"++.  +.                           .  +.                           .  +.    "};
