/* XPM */
static char * skier_back_xpm[] = {
"75 75 29 1",
" 	c #FFFFFF",
".	c #5FCDE4",
"+	c #CBDBFC",
"@	c #000000",
"#	c #E86500",
"$	c #FEFEFE",
"%	c #D7D7D7",
"&	c #FFFEFF",
"*	c #9BADB7",
"=	c #1A0917",
"-	c #FF7C17",
";	c #FFFEFE",
">	c #1D18DD",
",	c #0C08DD",
"'	c #1912C0",
")	c #98FCFE",
"!	c #97FBFD",
"~	c #96FBFD",
"{	c #FF0E2B",
"]	c #97FCFE",
"^	c #0C1C1C",
"/	c #FF1B31",
"(	c #FB8B1D",
"_	c #D57610",
":	c #910808",
"<	c #710606",
"[	c #FB1211",
"}	c #E30E0E",
"|	c #B21919",
"        .        ..+++++.  +.           .        ..     .  +.           .  ",
"                  ..+++++.  +.                    ..     .  +.             ",
"                   ..+++++.  +.                    ..     .  +.            ",
"                    .++++++.  +.                    .      .  +.           ",
".                   +.  ++  .   .                   +.      .   .          ",
"+.                  +                               +                      ",
" +.                     @@@@@@###############@@@@@                         ",
"  +.                  @@@@@@@@###############@@@@@@@                       ",
".  +.                 @@@@@@@@###############@@@@@@@                       ",
" .  +                @$$$$####%%%%           ####&&&@@               .     ",
"  .                @@@$$$$####%%%%           ####&&&@@@@       *      .    ",
"   .               @@@$$$$####%%%%           ####&&&@@@@      * *     +.   ",
"    .            @@%%%####                       ###%%%%@@     *       +.  ",
"              +  @@%%%####                       ###%%%%@@           .  +. ",
"            + +  @@%%%####                       ###%%%%@@            ..  .",
"            + +  @@%%%####                       ###%%%%@@                 ",
"            +    @@%%%####                       ###%%%%@@                 ",
"                 @@%%%####                       ###%%%%@@                 ",
"                 @@%%%####                       ###%%%%@@        +        ",
"                 @@%%%####                       ###%%%%@@       + +       ",
"                    ==----    ;;;;       ;;;;    ---===           +   .    ",
"                    ==----    ;;;;       ;;;;    ---===                .   ",
"           *        ==----    ;;;;       ;;;;    ---===                 .  ",
".         * *       ==----    ;;;;       ;;;;    ---===                  . ",
"..  +      *     @@-------;;;;;;;;;;;    ;;;;%%%%-------@@                .",
" ..              @@-------;;;;;;;;;;;    ;;;;%%%%-------@@                 ",
"  ..             @@-------;;;;;;;;;;;    ;;;;%%%%-------@@                 ",
"   .  +            ===----%%%%%%%%%%%%%%%%%%%%%%%---===                    ",
"    . ++           ===----%%%%%%%%%%%%%%%%%%%%%%%---===              .     ",
"      ++  +        ===----%%%%%%%%%%%%%%%%%%%%%%%---===    +         ..    ",
"       +*++        ===----%%%%%%%%%%%%%%%%%%%%%%%---===    +          ..   ",
"       *++*            ===>>>>,,,,>>>>>>>>>>>>>>>==        + +         ..  ",
"        **             ===>>>>,,,,>>>>>>>>>>>>>>>==        + +          .  ",
"                       ===>>>>,,,,>>>>>>>>>>>>>>>==          +             ",
"                       ===>>>>,,,,>>>>>>>>>>>>>>>==                        ",
"                    @@''''''''''''''''''''''''''''''@@                     ",
".                   @@''''''''''''''''''''''''''''''@@                     ",
"+.                  @@''''''''''''''''''''''''''''''@@@@@@@@               ",
" +.                 @@''''''''''''''''''''''''''''''@@@@@@@@               ",
"  +.                  @@@@))))!!!!!!!!!!!!!!!))))~~~{{{{{{{{               ",
".  +.                 @@@@))))!!!!!!!!!!!!!!!))))~~~{{{{{{{{               ",
" .  +                 @@@@))))!!!!!!!!!!!!!!!))))~~~{{{{{{{{         .     ",
"  .                 @@))))]]]]!!!!!!!!!!!!!!!]]]]^^^@@@@@@@@   *      .    ",
"   .                @@))))]]]]!!!!!!!!!!!!!!!]]]]^^^@@@@@@@@  * *     +.   ",
"    .               @@))))]]]]!!!!!!!!!!!!!!!]]]]^^    @@@     *       +.  ",
"              +     @@))))]]]]!!!!!!!!!!!!!!!]]]]^^    @@@           .  +. ",
"            + +  @@///////@@@@!!!!!!!!!!!!!!!@@@@      @@@            .. +.",
"            + +  @@///////@@@@!!!!!!!!!!!!!!!@@@       @@@            +++++",
"            +    @@///////@@@@!!!!!!!!!!!!!!!@@@       @@@            +++++",
"                 @@///////@@@@!!!!!!!!!!!!!!!@@@       @@@            +++++",
"                 @@@@@@@@@@@@@((((___((((((((@@@       @@@        +   +++++",
"                 @@@@@@@@@@@@@((((___((((((((@@@       @@@       + +  +++++",
"                 @@@@@@@@@@@@@((((___((((((((@@@       @@@        +   .++++",
"                 @@@       @@@((((___((((((((@@@       @@@             .+++",
"           *     @@@       @@@::::<<<::::::::@@@       @@@              .++",
".         * *    @@@       @@@::::<<<::::::::@@@       @@@               .+",
"..         *     @@@       @@@::::<<<::::::::@@@       @@@                .",
" ..              @@@       @@@[[[[}}}[[[[[[[[@@@       @@@                 ",
"  ..             @@@       @@@[[[[}}}[[[[[[[[@@@       @@@                 ",
"   .. +          @@@       @@@[[[[}}}[[[[[[[[@@@       @@@                 ",
"    . ++         @@@       @@@[[[[}}}[[[[[[[[@@@       @@@           .     ",
"      ++  +      @@@       +  |||||   ++|||||          @@@ +         ..    ",
"       +*++                +  |||||    +|||||              +          ..   ",
"       *++*                + +|||||    *|||||              + +         ..  ",
"        **                 + +|||||     |||||              + +          .  ",
"                             +|||||     |||||                +             ",
"                              |||||     |||||                              ",
"                              |||||     |||||                              ",
".                             |||||     |||||                              ",
"+.                           .|||||     |||||                .  +.         ",
" +.                           .  +.                           .  +.        ",
"  +.                           .  +.                           .  +.       ",
".  +.                           .  +.                           .  +.      ",
"+.  +.                           .  +.                           .  +.     ",
"++.  +.                           .  +.                           .  +.    "};
