/* XPM */
static char * wall_2_xpm[] = {
"75 75 12 1",
" 	c #FFFFFF",
".	c #5FCDE4",
"+	c #CBDBFC",
"@	c #9BADB7",
"#	c #3E734E",
"$	c #4D9262",
"%	c #7AB055",
"&	c #45283C",
"*	c #663931",
"=	c #DADADA",
"-	c #ADBBD7",
";	c #83939C",
"        .        ..+++++.  +.           .        ..     .  +.           .  ",
"                  ..+++++.  +.                    ..     .  +.             ",
"                   ..+++++.  +.                    ..     .  +.            ",
"                    .++++++.  +.                    .      .  +.           ",
".                   +.  ++  .   .                   +.      .   .          ",
"+.                  +                               +                      ",
" +.                                                                        ",
"  +.                                                                       ",
".  +.                                                                      ",
" .  +                                  +                             .     ",
"  .                            @      ++                       @      .    ",
"   .                          @     +++                       @ @     +.   ",
"    .                          #$+                             @       +.  ",
"              +               #$%+            +                      .  +. ",
"            + +               #   +%$       + +                       ..  .",
"            + +              #  ++%$% +     + +                            ",
"            +               #$$+$%% ++$+    +#                             ",
"                             $$$%$%$%$$$  ++##                             ",
"                              %$    $$   +####                    +        ",
"                           # ++%#+++  +++######                  + +       ",
"                           +++%%%#######$$$####                   +   .    ",
"                           #$%%%$$$$$$$$$$$$# #                        .   ",
"           @              #$  $%$%$$         +##                        .  ",
".         @ @            #$     $$       +#++$###                        . ",
"..  +      @             #$+++  + $$$+  +#$#$###                          .",
" ..                      #$$$$++$$$$$$++#$#$#$##                           ",
"  ..                       $$#$#$$$$$$$$$$$$$###                           ",
"   .  +                    $$$#$#$#$$$$$$$$$#$###                          ",
"    . ++                   %$$$#$#$#$#$$$$$$$## ##                   .     ",
"      ++  +             +  $%$$$#####$#$$$  $    #         +         ..    ",
"       +@++             +   $%$$$#####$$$     +++#         +          ..   ",
"       @++@             #+   $%$$$     $$    +$$###        + +         ..  ",
"        @@              ##    $%  ++++     ++#$####        + +          .  ",
"                       ##+++     $$###+++++##$#$####         +             ",
"                      #  +##+++++$$$$#######$#$#$###                       ",
"                      #   ######$$$$$$$###$$#$# ####                       ",
".                    +#+   %$$$$$$$$$$$$$$$$$   +### +                     ",
"+.                  + ##+   %$$$$$$$$$$$$$$    +####+ +                    ",
" +.                  +##$++   $$     +$$$$+++++##$#  +                     ",
"  +.                  ###$$++$$+    +$$$$$$$#$#### +                       ",
".  +.                #####$$$$$$++++$$$$$$####### +#                       ",
" .  +                #########$$$$$$$$$$$$$$$$   +###                .     ",
"  .                  # #$$$$$$  $$$$$$$$$$$$$  $$$###          @      .    ",
"   .                 #   $# ++      ####$%%   +$#####         @ @     +.   ",
"    .                #    $###+++ #####$   ++$#######          @       +.  ",
"              +      #+   $########$++++++++++##$$###                .  +. ",
"            + +      #+  ++$##################$$$$$##                 .. +.",
"            + +      #$+    $##########$$$$     +$$##                 +++++",
"            +        #$$++    $$$$  $$$$$    ++%$$$##                 +++++",
"                      #$$%++$$$$ +++  $ +++++$$$$####                 +++++",
"                       ###$$++$$$$$$$$$$$$$$$$$#####              +   +++++",
"                        ####$$$$$$$##$$$$$$$$######              + +  +++++",
"                         #####$$$$################                +   .++++",
"                           ######################                      .+++",
"           @                 ######&&&&&&##@                            .++",
".         @ @                 ###&&&&&&&& @ @                            .+",
"..         @                    ****&*&*&  @                              .",
" ..                             ****&*&*&==                                ",
"  ..                        ====******&*&&=====                            ",
"   .. +                   =====*&*****&*&&=======                          ",
"    . ++                 =====*&&*****&*&&*=======                   .     ",
"      ++  +             ===-=====**&**&&&&&*=======        +         ..    ",
"       +@++             ===-====***&*&&&&*-========        +          ..   ",
"       @++@              ==-=-==*&&&&&&&&&*=======         + +         ..  ",
"        @@                =-=-==*=======;&&======          + +          .  ",
"                            =-=================              +             ",
"                                ===========                                ",
"                                                                           ",
".                                                                          ",
"+.                           .  +.                           .  +.         ",
" +.                           .  +.                           .  +.        ",
"  +.                           .  +.                           .  +.       ",
".  +.                           .  +.                           .  +.      ",
"+.  +.                           .  +.                           .  +.     ",
"++.  +.                           .  +.                           .  +.    "};
