/* XPM */
static char * wall_tree_xpm[] = {
"75 75 10 1",
" 	c #696A6A",
".	c #847E87",
"+	c #9BADB7",
"@	c #CBDBFC",
"#	c #FFFFFF",
"$	c #3E734E",
"%	c #4D9262",
"&	c #7AB055",
"*	c #45283C",
"=	c #663931",
"  .+++.           ... .. .+++++.  .+++.           ... .. .+++++.  .+++.    ",
"   .++.     .....     .+. .+++. .. .++.     .....     .+. .+++. .. .++.   .",
"  . .. .... .+++. .... .. ..+. .... .. .... .+++. .... .. ..+. .... .. . .+",
".. @@@@++@@@@@  @@+@@@@   @ . .@+.. @@@++@@@@@  @@+@@@@   @ . .@+.. @@@ .++",
"++.@###@@####@.@##@#@#@@@@#@@@@#@+@@###@@####@.@##@#@#@@@@#@@@@#@+@@##@.+++",
"++.@##########@######@###########@############@######@###########@####@.+++",
"+.  @#################################################################@ ..+",
". ..@################################################################@+.  .",
" ...+@#######################@###############################@#######@+.   ",
" ..+@######################@#@#########@++#################@#@########@.   ",
". .@#######################@#@########@@#@+################@#@########@.  .",
"+. .@######################@########@@@###@################@##########@   .",
"++. @###@@@################@###$%@#########################@##########@.. .",
"+++.@#########################$%&@###################################@@+. .",
"++. @####@@@@#################$###@&%###############################@. +. .",
"+..@#########################$##@@&%&#@#####@########################@ +.  ",
".   @#######################$%%@%&&#@@%@####@$########################@.. .",
" .. @########################%%%&%&%&%%%##@@$$########################@   .",
".+. @#########################&%####%%###@$$$$#######################@+. .+",
".. @@######################$#@@&$@@@##@@@$$$$$$#######################@. .+",
"  .@#@#####################@@@&&&$$$$$$$%%%$$$$######################@@. ..",
". .@@######################$%&&&%%%%%%%%%%%%$#$#####################@#@.   ",
". .@######################$%##%&%&%%#########@$$#####################@@ .. ",
". .+@####################$%#####%%#######@$@@%$$$####################@ .+. ",
"   @#####################$%@@@##@#%%%@##@$%$%$$$#####################@ ..  ",
" ..@#####################$%%%%@@%%%%%%@@$%$%$%$$#####################@   ..",
" .+ @######################%%$%$%%%%%%%%%%%%%$$$######################@..++",
" .+ .@#####################%%%$%$%$%%%%%%%%%$%$$$############@@@@####@ .+++",
" .+@@######################&%%%$%$%$%$%%%%%%%$$#$$###################@.++++",
" ..@##############+#####@##%&%%%$$$$$%$%%%##%####$#############@@@###@ .+++",
"   @#############+#+####@###%&%%%$$$$$%%%#####@@@$###################@. .+.",
"  .@######+@@#####+#####$@###%&%%%#####%%####@%%$$$###################@. ..",
"  .@#####+@@############$$####%&##@@@@#####@@$%$$$$##################@+..  ",
"  .+@####+@+###########$$@@@#####%%$$$@@@@@$$%$%$$$$################@+... .",
"  .+@#####+@@@########$##@$$@@@@@%%%%$$$$$$$%$%$%$$$#################@.. .+",
".. @########@@@#######$###$$$$$$%%%%%%%$$$%%$%$#$$$$#################@  .++",
"++.@#################@$@###&%%%%%%%%%%%%%%%%%###@$$$##################@.+++",
"++.@##################$$@###&%%%%%%%%%%%%%%####@$$$$@#################@.+++",
"+.  @################@$$%@@###%%#####@%%%%@@@@@$$%$########@@@########@ ..+",
". ..@#################$$$%%@@%%@####@%%%%%%%$%$$$$#@########@@@+#####@+.  .",
" ...+@###############$$$$$%%%%%%@@@@%%%%%%$$$$$$$#@$##########+@+####@+.   ",
" ..+@################$$$$$$$$$%%%%%%%%%%%%%%%%###@$$$#########@@+#####@.   ",
". .@#################$#$%%%%%%##%%%%%%%%%%%%%##%%%$$$##+#####@@+######@.  .",
"+. .@################$###%$#@@######$$$$%&&###@%$$$$$#+#+#############@   .",
"++. @###@@@##########$####%$$$@@@#$$$$$%###@@%$$$$$$$##+##############@.. .",
"+++.@################$@###%$$$$$$$$%@@@@@@@@@@$$%%$$$################@@+. .",
"++. @####@@@@########$@##@@%$$$$$$$$$$$$$$$$$$%%%%%$$###############@. +. .",
"+..@#################$%@####%$$$$$$$$$$%%%%#####@%%$$################@ +.  ",
".   @################$%%@@####%%%%##%%%%%####@@&%%%$$#################@.. .",
" .. @#################$%%&@@%%%%#@@@##%#@@@@@%%%%$$$$#################@   .",
".+. @##################$$$%%@@%%%%%%%%%%%%%%%%%$$$$$#################@+. .+",
".. @@###################$$$$%%%%%%%$$%%%%%%%%$$$$$$###################@. .+",
"  .@#@###################$$$$$%%%%$$$$$$$$$$$$$$$$###################@@. ..",
". .@@######################$$$$$$$$$$$$$$$$$$$$$$###################@#@.   ",
". .@#########################$$$$$$******$$##########################@@ .. ",
". .+@########################+$$$********############################@ .+. ",
"   @##########################+#====*=*=*############################@ ..  ",
" ..@############################====*=*=*############################@   ..",
" .+ @###########################======*=**############################@..++",
" .+ .@#########################=*=====*=**###################@@@@####@ .+++",
" .+@@#########################=**=====*=**=##########################@.++++",
" ..@##########@################@#==*==*****=##@################@@@###@ .+++",
"   @##########@################@===*=****=####@######################@. .+.",
"  .@######+#@#@################+=*********=#@#@################+######@. ..",
"  .@#####+##@#@#################=+#######**#@#@#################+####@+..  ",
"  .+@#######@###############################@#######################@+... .",
"  .+@################################################################@.. .+",
".. @#################################################################@  .++",
"++.@####@###########@######@############@###########@######@##########@.+++",
"++.@##@@+@#@@@@#@@@@#@#@##@.@####@@###@@+@#@@@@#@@@@#@#@##@.@####@@###@.+++",
"+.  @@ ..+@. . @   @@@@+@@  @@@@@++@@@ ..+@. . @   @@@@+@@  @@@@@++@@@  ..+",
". . .. .... .+.. .. .... .+++. .... .. .... .+.. .. .... .+++. .... .. .  .",
" . .++. .. .+++. .+.     .....     .++. .. .+++. .+.     .....     .++. .  ",
"   .+++.  .+++++. .. ...           .+++.  .+++++. .. ...           .+++.   ",
"  .+++++. ..++++.    .++.. .....  .+++++. ..++++.    .++.. .....  .+++++. ."};
