/* XPM */
static char * wall_xpm[] = {
"75 75 5 1",
" 	c #696A6A",
".	c #847E87",
"+	c #9BADB7",
"@	c #CBDBFC",
"#	c #FFFFFF",
"  .+++.           ... .. .+++++.  .+++.           ... .. .+++++.  .+++.    ",
"   .++.     .....     .+. .+++. .. .++.     .....     .+. .+++. .. .++.   .",
"  . .. .... .+++. .... .. ..+. .... .. .... .+++. .... .. ..+. .... .. . .+",
".. @@@@++@@@@@  @@+@@@@   @ . .@+.. @@@++@@@@@  @@+@@@@   @ . .@+.. @@@ .++",
"++.@###@@####@.@##@#@#@@@@#@@@@#@+@@###@@####@.@##@#@#@@@@#@@@@#@+@@##@.+++",
"++.@##########@######@###########@############@######@###########@####@.+++",
"+.  @#################################################################@ ..+",
". ..@################################################################@+.  .",
" ...+@#######################@###############################@#######@+.   ",
" ..+@######################@#@##########++#################@#@########@.   ",
". .@#######################@#@#########+@@+################@#@########@.  .",
"+. .@######################@###########@+@@################@##########@   .",
"++. @###@@@################@##########@@##@################@##########@.. .",
"+++.@#################################@@#############################@@+. .",
"++. @####@@@@#########################@#############################@. +. .",
"+..@#################################################################@ +.  ",
".   @#################################################################@.. .",
" .. @######################################+##########################@   .",
".+. @#####################################+#+########################@+. .+",
".. @@######################################+##########################@. .+",
"  .@#@###############################################################@@. ..",
". .@@###############################################################@#@.   ",
". .@#######################################+#########################@@ .. ",
". .+@#####################################+#+########################@ .+. ",
"   @#######################################+#########################@ ..  ",
" ..@#################################################################@   ..",
" .+ @#################################################################@..++",
" .+ .@################################@######################@@@@####@ .+++",
" .+@@#################################@@#############################@.++++",
" ..@##############+########@##########@@##@####################@@@###@ .+++",
"   @#############+#+#######@###########@+@@##########################@. .+.",
"  .@######+@@#####+########@#@#########+@@+###########################@. ..",
"  .@#####+@@###############@#@##########++###########################@+..  ",
"  .+@####+@+#################@######################################@+... .",
"  .+@#####+@@@#######################################################@.. .+",
".. @########@@@######################################################@  .++",
"++.@#################@################################################@.+++",
"++.@##################@#############################@#################@.+++",
"+.  @################@#####################################@@@########@ ..+",
". ..@#######################################################@@@+#####@+.  .",
" ...+@########################################################+@+####@+.   ",
" ..+@#########################################################@@+#####@.   ",
". .@###########################+#######################+#####@@+######@.  .",
"+. .@#########################+#+#####################+#+#############@   .",
"++. @###@@@####################+#######################+##############@.. .",
"+++.@#########################################@######################@@+. .",
"++. @####@@@@###############################@#@#####################@. +. .",
"+..@########################################@#@######################@ +.  ",
".   @#######################################@#########################@.. .",
" .. @#################################################################@   .",
".+. @#############################@##################################@+. .+",
".. @@############################@#@##################################@. .+",
"  .@#@############################@##################################@@. ..",
". .@@###############################################################@#@.   ",
". .@##########################+######################################@@ .. ",
". .+@########################+#+#####################################@ .+. ",
"   @##########################+######################################@ ..  ",
" ..@#################################################################@   ..",
" .+ @#################################################################@..++",
" .+ .@#############################@#########################@@@@####@ .+++",
" .+@@#############################@@#################################@.++++",
" ..@##########@################@##@@##########@################@@@###@ .+++",
"   @##########@################@@+@###########@######################@. .+.",
"  .@######+#@#@################+@@+#########@#@################+######@. ..",
"  .@#####+##@#@#################++##########@#@#################+####@+..  ",
"  .+@#######@###############################@#######################@+... .",
"  .+@################################################################@.. .+",
".. @#################################################################@  .++",
"++.@####@###########@######@############@###########@######@##########@.+++",
"++.@##@@+@#@@@@#@@@@#@#@##@.@####@@###@@+@#@@@@#@@@@#@#@##@.@####@@###@.+++",
"+.  @@ ..+@. . @   @@@@+@@  @@@@@++@@@ ..+@. . @   @@@@+@@  @@@@@++@@@  ..+",
". . .. .... .+.. .. .... .+++. .... .. .... .+.. .. .... .+++. .... .. .  .",
" . .++. .. .+++. .+.     .....     .++. .. .+++. .+.     .....     .++. .  ",
"   .+++.  .+++++. .. ...           .+++.  .+++++. .. ...           .+++.   ",
"  .+++++. ..++++.    .++.. .....  .+++++. ..++++.    .++.. .....  .+++++. ."};
